# xmcd
#
# Track frame offsets:
#	182
#	20027
#	38772
#	60872
#	77705
#	95537
#	112637
#	132170
#	148930
#	167137
#	186732
#	200872
#
# Disc length: 2891 seconds
#
# Revision: 3
# Processed by: cddbd v1.5.2PL0 Copyright (c) Steve Scherf et al.
# Submitted via: EasyCDDAExtractor 9.0.0.1
#
DISCID=a80b490c
DTITLE=Charlie Landsborough - What Colour Is The Wind
DYEAR=1994
DGENRE=Country
TTITLE0=A Million Ways To Fall
TTITLE1=My Forever Friend
TTITLE2=Song of the Ocean
TTITLE3=When You're Not A Dream
TTITLE4=What Colour is the Wind
TTITLE5=Once Bitten Twice Shy
TTITLE6=Throw Me Away
TTITLE7=When The Counting's Done
TTITLE8=Funny Way To Say Goodbye
TTITLE9=A Dream or Two
TTITLE10=Dance With Me
TTITLE11=White Lies and Windows
EXTD=YEAR: 1994
EXTT0=
EXTT1=
EXTT2=
EXTT3=
EXTT4=
EXTT5=
EXTT6=
EXTT7=
EXTT8=
EXTT9=
EXTT10=
EXTT11=
PLAYORDER=
